<svg width="112" height="56" viewBox="0 0 112 56" fill="none" xmlns="http://www.w3.org/2000/svg">
<path d="M43.6801 45.0074V45.4767L39.5838 43.5556L43.6801 41.6085V42.1737H49.5524V39.073H42.7027V36.4104H49.7805V33.1282H38.7698V48.2871H50.0009V45.0048H43.6776L43.6801 45.0074Z" fill="#27272A"/>
<path d="M67.1482 33.1306L60.4749 40.8851L53.7808 33.1306H51.7249V48.2895H55.4815V40.2343L59.8449 45.391H61.1152L65.4786 40.2343V48.2895H69.2352V33.1306H67.1482Z" fill="#27272A"/>
<path d="M80.1967 33.04H78.5971L70.9075 48.2897H74.996L76.1575 45.8474H82.6571L83.803 48.2897H87.9045L80.1993 33.04H80.1967ZM77.4693 43.0604L79.3904 38.9641L81.3375 43.0604H77.4693Z" fill="#27272A"/>
<path d="M48.3337 48.2611L48.2793 48.2871V48.2378L48.3337 48.2611Z" fill="#27272A"/>
<path d="M37.0042 45.0073V48.2869H25.7705V33.1306H36.7838V36.4102H29.7035V39.0728H32.5087V38.6943L33.3175 39.0728L36.5531 40.5895V40.6414L33.315 42.1762L32.5087 42.5599V42.1762H29.7035V45.0073H37.0042Z" fill="#27272A"/>
<path d="M24.0697 44.7377C24.0697 46.5266 23.4034 47.9396 22.0967 48.9325C20.8004 49.9125 19.1023 50.4129 17.0412 50.4129C14.9801 50.4129 13.2353 49.9125 11.7756 48.9299C11.0367 48.4322 10.4638 47.8125 10.0593 47.0736C9.65229 46.3322 9.41377 45.4714 9.34118 44.5018L9.33081 44.3307H13.0045L13.0227 44.4707C13.1471 45.5025 13.5904 46.2207 14.3812 46.6666C15.1875 47.1177 16.0819 47.351 17.0386 47.351C17.9953 47.351 18.7704 47.1436 19.4393 46.7392C20.0953 46.3425 20.409 45.7644 20.409 44.9736C20.409 44.5536 20.313 44.1777 20.1212 43.8536C19.9293 43.5322 19.6027 43.2392 19.1541 42.9877C18.6875 42.7259 18.2545 42.5236 17.8656 42.3759C17.4767 42.2333 16.9012 42.0414 16.1519 41.8159C14.0364 41.1496 12.429 40.3951 11.3712 39.5681C10.2901 38.7203 9.73785 37.4992 9.73785 35.9255C9.73785 34.2066 10.3834 32.8533 11.6641 31.9044C12.9267 30.9633 14.6016 30.4836 16.6393 30.4836C18.5449 30.4836 20.1886 30.9451 21.5186 31.8551C22.8641 32.7781 23.6238 34.2118 23.7716 36.1173L23.7871 36.2885H20.1808L20.1627 36.1536C20.0227 35.2488 19.6208 34.5722 18.9649 34.1444C18.2934 33.7088 17.513 33.4885 16.6445 33.4885C15.776 33.4885 14.9956 33.6855 14.3397 34.0744C13.7019 34.4503 13.3908 35.0103 13.3908 35.7829C13.3908 36.1096 13.466 36.4129 13.6164 36.6748C13.7745 36.9522 13.9482 37.1803 14.1349 37.3566C14.3164 37.5329 14.6275 37.7092 15.0656 37.8907C15.5116 38.0748 15.8641 38.2122 16.1156 38.3003C16.3671 38.3859 16.7871 38.5207 17.4016 38.7048C18.3375 39.0081 19.0349 39.244 19.4756 39.4048C19.9216 39.5681 20.4997 39.8248 21.1997 40.1748C21.9127 40.5299 22.4416 40.8929 22.7682 41.2507C23.0949 41.6085 23.3956 42.0907 23.6601 42.687C23.9245 43.2885 24.0619 43.9755 24.0619 44.7299L24.0697 44.7377Z" fill="#27272A"/>
<path d="M102.667 44.7377C102.667 46.5266 102.006 47.9396 100.694 48.9325C99.3975 49.9125 97.6993 50.4129 95.6434 50.4129C93.5875 50.4129 91.8375 49.9125 90.3778 48.9299C88.9001 47.937 88.0834 46.4462 87.9434 44.5018L87.9304 44.3307H91.6067L91.6223 44.4707C91.7467 45.5025 92.1926 46.2207 92.9834 46.6666C93.7845 47.1177 94.6789 47.351 95.6408 47.351C96.6026 47.351 97.37 47.1436 98.0415 46.7392C98.6949 46.3425 99.0112 45.7644 99.0112 44.9736C99.0112 44.5536 98.9126 44.1777 98.7208 43.8536C98.5289 43.5322 98.2049 43.2392 97.7537 42.9877C97.2897 42.7259 96.8541 42.5236 96.4678 42.3759C96.0763 42.2333 95.5008 42.0414 94.7515 41.8159C92.6386 41.1496 91.0312 40.3951 89.9708 39.5681C88.8897 38.7203 88.3375 37.4992 88.3375 35.9255C88.3375 34.2066 88.9856 32.8533 90.2638 31.9044C91.5263 30.9633 93.2012 30.4836 95.2389 30.4836C97.1497 30.4836 98.7908 30.9451 100.121 31.8551C101.464 32.7781 102.226 34.2118 102.374 36.1173L102.387 36.2885H98.783L98.7597 36.1536C98.6197 35.2359 98.2282 34.5773 97.5619 34.1444C96.893 33.7088 96.1126 33.4885 95.2441 33.4885C94.3756 33.4885 93.5952 33.6855 92.9393 34.0744C92.2989 34.4503 91.9904 35.0103 91.9904 35.7829C91.9904 36.1096 92.0656 36.4129 92.216 36.6748C92.3715 36.9522 92.5478 37.1803 92.7319 37.3566C92.916 37.5329 93.2297 37.7092 93.6626 37.8907C94.1112 38.0748 94.4637 38.2122 94.7152 38.3003C94.9641 38.3859 95.3945 38.5207 95.9986 38.7048C96.9345 39.0081 97.6319 39.244 98.0726 39.4048C98.5186 39.5681 99.1019 39.8248 99.8019 40.1748C100.515 40.5299 101.044 40.8929 101.37 41.2507C101.697 41.6085 101.998 42.0907 102.26 42.687C102.527 43.2885 102.662 43.9755 102.662 44.7299L102.667 44.7377Z" fill="#27272A"/>
<path d="M37.9529 18.5268C39.0288 19.5768 40.4885 20.2379 42.1011 20.2716C41.4918 21.1582 41.1366 22.2264 41.1366 23.3827C41.1366 23.9531 41.2222 24.4975 41.3829 25.0134C40.9526 25.1923 40.4781 25.2934 39.9777 25.2934C37.9426 25.2934 36.2859 23.6368 36.2859 21.6016C36.2859 20.8601 36.5063 20.1757 36.8822 19.6001L36.8874 19.5949C37.3074 19.3097 37.6729 18.9442 37.9581 18.5242L37.9529 18.5268Z" fill="#37623A"/>
<path d="M51.1908 23.3854C51.1908 25.8976 49.1504 27.9379 46.6382 27.9379C44.8727 27.9379 43.3353 26.9268 42.586 25.4465C42.5108 25.3013 42.446 25.1561 42.3916 25.0005C42.3267 24.845 42.2775 24.6817 42.236 24.5157C42.1401 24.1554 42.0908 23.7742 42.0908 23.3854C42.0908 22.1487 42.586 21.0287 43.3871 20.2094L43.4312 20.1654C43.5712 20.1394 43.7112 20.1057 43.8512 20.0694C44.0016 20.0254 44.1519 19.9787 44.3023 19.9242C44.9919 19.6779 45.6271 19.315 46.1845 18.8587C46.3349 18.8431 46.4853 18.8328 46.6408 18.8328C49.153 18.8328 51.1934 20.8731 51.1934 23.3854H51.1908Z" fill="#37623A"/>
<path d="M63.3162 25.1562C62.6318 27.4221 60.524 29.0736 58.0377 29.0736C54.9966 29.0736 52.5259 26.6028 52.5259 23.5617C52.5259 21.7806 53.3711 20.1991 54.6829 19.1906C54.8981 19.2165 55.1185 19.2295 55.3388 19.2295C56.6248 19.2295 57.8148 18.8095 58.7766 18.0991C59.7411 18.2236 60.6329 18.6099 61.377 19.175C61.2525 19.6443 61.1877 20.1395 61.1877 20.645C61.1877 22.4599 62.0174 24.0828 63.3188 25.1588L63.3162 25.1562Z" fill="#37623A"/>
<path d="M71.9161 20.8237C71.8202 23.4345 69.6657 25.5319 67.029 25.5319C66.0594 25.5319 65.1572 25.2519 64.3976 24.7619C64.2472 24.6659 64.102 24.5674 63.962 24.4508C63.8116 24.3263 63.6664 24.1967 63.5264 24.0567C62.6657 23.1752 62.1394 21.9748 62.1394 20.6448C62.1394 20.4037 62.155 20.1704 62.1887 19.9396C62.2198 19.7452 62.2587 19.5482 62.3079 19.3641C62.352 19.193 62.409 19.0245 62.4739 18.8637C62.715 18.2441 63.0779 17.6893 63.5342 17.2174C64.3509 17.583 65.2557 17.7878 66.2098 17.7878C67.4853 17.7878 68.6753 17.4222 69.6864 16.7922C69.8472 18.4282 70.682 19.8645 71.9135 20.8237H71.9161Z" fill="#37623A"/>
<path d="M80.3964 16.2115C80.3964 18.9078 78.2057 21.1037 75.5094 21.1037C74.5372 21.1037 73.6272 20.8185 72.8676 20.3233C72.6861 20.2093 72.5176 20.0848 72.3516 19.9448C72.1313 19.7582 71.9264 19.5482 71.7424 19.3278L71.7372 19.3226C71.3068 18.8041 70.9853 18.1974 70.8013 17.5337L70.7961 17.5285C70.7157 17.2511 70.6664 16.9634 70.6353 16.6678C70.6198 16.5174 70.6172 16.3671 70.6172 16.2115V16.0922C70.6172 16.0922 70.6405 16.0715 70.6509 16.0611C71.7424 15.0708 72.4916 13.7148 72.7224 12.1956C73.5131 11.6434 74.4776 11.3245 75.5094 11.3245C78.2057 11.3245 80.3964 13.5152 80.3964 16.2115Z" fill="#37623A"/>
<path d="M51.4655 9.92705C51.4655 10.1682 51.4344 10.4015 51.3748 10.627C51.2685 11.073 51.0559 11.4722 50.7656 11.8067C50.5815 12.027 50.3611 12.2163 50.1148 12.3719C49.9489 12.4782 49.7752 12.5663 49.5833 12.6311C49.267 12.7556 48.9274 12.8204 48.567 12.8204C48.4607 12.8204 48.357 12.8152 48.2559 12.8048C48.0796 12.7841 47.9111 12.7504 47.7452 12.6985C47.5404 12.6389 47.3511 12.5585 47.1696 12.4574C46.353 12.0115 45.78 11.1819 45.6789 10.2174C45.6685 10.1215 45.6633 10.023 45.6633 9.92186C45.6633 9.81297 45.6685 9.70149 45.6841 9.59779C45.7048 9.42149 45.7385 9.25297 45.7904 9.09223C46.1455 7.89705 47.2552 7.02075 48.567 7.02075C49.8789 7.02075 51.0378 7.93594 51.3644 9.18297C51.4189 9.37223 51.45 9.56927 51.4552 9.77409C51.4656 9.82334 51.4655 9.8752 51.4655 9.92446V9.92705Z" fill="#37623A"/>
<path d="M71.8408 11.2079C71.8408 11.3686 71.8356 11.5242 71.8227 11.6798C71.8019 11.9286 71.7604 12.1801 71.7112 12.4186C71.7112 12.4238 71.706 12.4238 71.706 12.4238C71.4804 13.4609 70.9671 14.3864 70.2567 15.1175C70.1219 15.2575 69.9793 15.3923 69.8316 15.5116C69.7849 15.5505 69.7408 15.5868 69.6916 15.6205C69.6008 15.6957 69.5101 15.7657 69.409 15.8305C69.256 15.942 69.0901 16.0431 68.9241 16.1364C68.1204 16.5823 67.1949 16.8312 66.2123 16.8312C65.5771 16.8312 64.9627 16.7275 64.3923 16.5279C64.2134 16.4683 64.0371 16.3983 63.8634 16.3179H63.8582C63.6975 16.2427 63.5419 16.1572 63.3915 16.0664C62.4167 15.5012 61.626 14.6457 61.136 13.6216C60.786 12.8905 60.5916 12.0686 60.5916 11.2079C60.5916 11.1301 60.5916 11.0446 60.5916 10.9642C60.7238 7.97753 63.1945 5.58716 66.2097 5.58716C69.2249 5.58716 71.8382 8.10716 71.8382 11.2079H71.8408Z" fill="#37623A"/>
<path d="M47.4237 13.6061C47.4393 13.7746 47.447 13.9509 47.447 14.1246C47.447 15.6361 46.7989 17.0024 45.7619 17.9539C45.2226 18.4543 44.577 18.838 43.8615 19.0687C43.7059 19.1231 43.5452 19.1698 43.3819 19.2035C43.2496 19.2346 43.1148 19.258 42.98 19.2787C42.9359 19.2839 42.8919 19.2891 42.84 19.2943C42.6456 19.3176 42.4459 19.328 42.2463 19.328C40.9656 19.328 39.7885 18.8587 38.8785 18.0835C38.7385 17.9668 38.6089 17.8424 38.4819 17.7128C38.4533 17.6868 38.4274 17.6583 38.4093 17.6324C38.3185 17.5365 38.233 17.438 38.1526 17.3317C38.1189 17.2876 38.0826 17.2435 38.0489 17.1968C37.9141 17.0128 37.787 16.8131 37.6782 16.6083C37.3178 15.9524 37.0922 15.2057 37.0482 14.415C37.0482 14.3217 37.043 14.2257 37.043 14.1246C37.043 13.9846 37.0482 13.8498 37.0585 13.715C37.0715 13.5257 37.0974 13.3417 37.1311 13.155C37.5874 10.7439 39.7082 8.9187 42.2463 8.9187C43.1459 8.9187 43.9911 9.14685 44.7326 9.55389C44.717 9.67833 44.7119 9.80278 44.7119 9.92722C44.7119 11.6539 45.8526 13.1213 47.4237 13.6061Z" fill="#37623A"/>
<path d="M59.6349 11.2078C59.6349 12.1308 59.8241 13.0045 60.1689 13.8004C60.0704 15.12 59.4352 16.2971 58.4786 17.1111C58.2789 17.2822 58.0637 17.4378 57.8382 17.5726H57.8097C57.8097 17.5726 57.8045 17.5726 57.8045 17.5778C57.0734 18.0185 56.2541 18.2726 55.3363 18.2726H55.2223C54.9526 18.2674 54.6934 18.2389 54.4367 18.1871C52.1915 17.7619 50.4856 15.7863 50.4856 13.4245C50.4856 13.37 50.4856 13.3208 50.4908 13.2663C51.6445 12.6 52.4197 11.353 52.4197 9.92706C52.4197 9.8078 52.4171 9.68336 52.4015 9.5641C53.2156 8.94188 54.2371 8.57373 55.3363 8.57373C57.203 8.57373 58.8234 9.6341 59.6349 11.1845V11.2078Z" fill="#37623A"/>
<path d="M36.0864 14.1246C36.0864 15.4961 36.5375 16.7613 37.2971 17.7828C37.2867 17.8035 37.2738 17.8216 37.2582 17.8424C37.0015 18.2779 36.636 18.6383 36.2082 18.8924C35.7519 19.1724 35.2152 19.3279 34.6449 19.3279C32.9701 19.3279 31.6038 17.9642 31.6038 16.2816C31.6038 14.5991 32.9701 13.2354 34.6449 13.2354C35.1764 13.2354 35.6767 13.3702 36.1123 13.6165C36.0915 13.785 36.0864 13.9561 36.0864 14.1246Z" fill="#37623A"/>
</svg>
