<svg width="123" height="20" viewBox="0 0 123 20" fill="none" xmlns="http://www.w3.org/2000/svg">
<path d="M5.39725 11.0189C6.31185 11.913 7.55263 12.476 8.92343 12.5047C8.40552 13.2597 8.10359 14.1693 8.10359 15.154C8.10359 15.6397 8.17632 16.1033 8.31296 16.5427C7.94712 16.695 7.54381 16.7811 7.11846 16.7811C5.38843 16.7811 3.98016 15.3703 3.98016 13.6373C3.98016 13.0058 4.16749 12.423 4.48705 11.9329L4.49146 11.9285C4.84848 11.6856 5.15923 11.3743 5.40166 11.0167L5.39725 11.0189Z" fill="#37623A"/>
<path d="M16.6502 15.1562C16.6502 17.2955 14.9157 19.033 12.7802 19.033C11.2793 19.033 9.97245 18.172 9.33553 16.9114C9.27162 16.7878 9.21652 16.6641 9.17024 16.5317C9.11515 16.3992 9.07327 16.2601 9.03801 16.1188C8.95647 15.8119 8.9146 15.4874 8.9146 15.1562C8.9146 14.1031 9.33553 13.1494 10.0165 12.4517L10.054 12.4142C10.173 12.3921 10.292 12.3634 10.411 12.3325C10.5388 12.295 10.6667 12.2552 10.7945 12.2089C11.3807 11.9991 11.9207 11.6901 12.3945 11.3015C12.5223 11.2882 12.6501 11.2794 12.7824 11.2794C14.9179 11.2794 16.6524 13.0169 16.6524 15.1562H16.6502Z" fill="#37623A"/>
<path d="M26.9577 16.6642C26.3759 18.5937 24.5841 20.0001 22.4706 20.0001C19.8855 20.0001 17.7852 17.8961 17.7852 15.3064C17.7852 13.7897 18.5036 12.4429 19.6188 11.5841C19.8017 11.6062 19.9891 11.6172 20.1764 11.6172C21.2695 11.6172 22.2811 11.2596 23.0987 10.6547C23.9185 10.7606 24.6767 11.0896 25.3092 11.5709C25.2034 11.9705 25.1483 12.3922 25.1483 12.8227C25.1483 14.3681 25.8535 15.7501 26.9599 16.6664L26.9577 16.6642Z" fill="#37623A"/>
<path d="M34.2679 12.9749C34.1863 15.1981 32.3549 16.9842 30.1136 16.9842C29.2893 16.9842 28.5224 16.7458 27.8766 16.3285C27.7488 16.2468 27.6254 16.1629 27.5064 16.0636C27.3786 15.9576 27.2552 15.8472 27.1361 15.728C26.4045 14.9774 25.9571 13.9552 25.9571 12.8226C25.9571 12.6173 25.9703 12.4186 25.999 12.2221C26.0254 12.0565 26.0585 11.8887 26.1003 11.732C26.1378 11.5862 26.1863 11.4427 26.2414 11.3059C26.4463 10.7782 26.7549 10.3058 27.1428 9.90394C27.837 10.2152 28.6061 10.3896 29.4171 10.3896C30.5015 10.3896 31.513 10.0784 32.3725 9.54187C32.5092 10.935 33.2188 12.1581 34.2657 12.9749H34.2679Z" fill="#37623A"/>
<path d="M41.4767 9.04729C41.4767 11.3433 39.6145 13.2133 37.3224 13.2133C36.496 13.2133 35.7224 12.9705 35.0767 12.5488C34.9224 12.4516 34.7792 12.3457 34.6381 12.2264C34.4508 12.0675 34.2767 11.8887 34.1202 11.701L34.1158 11.6966C33.75 11.255 33.4767 10.7384 33.3202 10.1732L33.3158 10.1688C33.2475 9.9326 33.2056 9.68754 33.1792 9.43585C33.1659 9.3078 33.1637 9.17975 33.1637 9.04729V8.94573C33.1637 8.94573 33.1836 8.92807 33.1924 8.91924C34.1202 8.07588 34.7571 6.92123 34.9533 5.62749C35.6255 5.15723 36.4453 4.88568 37.3224 4.88568C39.6145 4.88568 41.4767 6.75123 41.4767 9.04729Z" fill="#37623A"/>
<path d="M16.8838 3.69577C16.8838 3.90109 16.8573 4.09979 16.8067 4.29187C16.7163 4.6716 16.5356 5.01159 16.2887 5.29639C16.1323 5.48405 15.9449 5.64522 15.7356 5.77768C15.5945 5.8682 15.4469 5.94326 15.2838 5.99846C15.0149 6.10443 14.7262 6.15962 14.4199 6.15962C14.3295 6.15962 14.2414 6.15521 14.1554 6.14637C14.0055 6.12871 13.8623 6.10001 13.7212 6.05586C13.5471 6.00508 13.3863 5.93664 13.232 5.85054C12.5378 5.4708 12.0507 4.76432 11.9648 3.94304C11.9559 3.86135 11.9515 3.77746 11.9515 3.69136C11.9515 3.59863 11.9559 3.5037 11.9692 3.41539C11.9868 3.26526 12.0154 3.12176 12.0595 2.98488C12.3615 1.96711 13.3047 1.22089 14.4199 1.22089C15.535 1.22089 16.5201 2.00022 16.7978 3.06215C16.8441 3.22331 16.8706 3.3911 16.875 3.56552C16.8838 3.60746 16.8838 3.65162 16.8838 3.69357V3.69577Z" fill="#37623A"/>
<path d="M34.204 4.7864C34.204 4.92328 34.1996 5.05575 34.1886 5.18821C34.1709 5.40016 34.1357 5.61431 34.0938 5.81742C34.0938 5.82184 34.0894 5.82183 34.0894 5.82183C33.8977 6.70493 33.4613 7.4931 32.8574 8.11569C32.7428 8.23491 32.6216 8.34971 32.496 8.45127C32.4563 8.48438 32.4189 8.51529 32.377 8.54399C32.2999 8.60802 32.2227 8.66762 32.1368 8.72282C32.0067 8.81775 31.8657 8.90385 31.7247 8.98333C31.0415 9.36307 30.2547 9.57501 29.4194 9.57501C28.8795 9.57501 28.3571 9.4867 27.8723 9.3167C27.7202 9.26592 27.5704 9.20632 27.4227 9.13787H27.4183C27.2817 9.07385 27.1494 9.00099 27.0216 8.92372C26.193 8.44243 25.5208 7.71388 25.1042 6.84182C24.8067 6.21923 24.6414 5.51937 24.6414 4.7864C24.6414 4.72017 24.6414 4.64731 24.6414 4.57887C24.7538 2.03555 26.8541 0 29.4172 0C31.9803 0 34.2018 2.14593 34.2018 4.7864H34.204Z" fill="#37623A"/>
<path d="M13.448 6.82852C13.4612 6.97203 13.4678 7.12216 13.4678 7.27007C13.4678 8.55719 12.9169 9.72068 12.0353 10.5309C11.5769 10.957 11.0281 11.2838 10.4199 11.4803C10.2876 11.5266 10.151 11.5664 10.0122 11.5951C9.89977 11.6215 9.78517 11.6414 9.67057 11.6591C9.6331 11.6635 9.59564 11.6679 9.55156 11.6723C9.38627 11.6922 9.21657 11.701 9.04687 11.701C7.95816 11.701 6.95761 11.3014 6.18406 10.6413C6.06505 10.542 5.95485 10.436 5.84686 10.3256C5.82262 10.3035 5.80058 10.2792 5.78515 10.2572C5.70802 10.1755 5.63529 10.0916 5.56697 10.0011C5.53832 9.96353 5.50747 9.926 5.47882 9.88626C5.36421 9.72951 5.25623 9.55951 5.16366 9.3851C4.85733 8.82654 4.66559 8.19071 4.62812 7.51734C4.62812 7.43786 4.62372 7.35618 4.62372 7.27007C4.62372 7.15086 4.62813 7.03605 4.63694 6.92125C4.64796 6.76008 4.67 6.60333 4.69865 6.44438C5.08653 4.39117 6.88929 2.83691 9.04687 2.83691C9.81161 2.83691 10.5301 3.0312 11.1604 3.37781C11.1472 3.48378 11.1428 3.58976 11.1428 3.69573C11.1428 5.16609 12.1125 6.41568 13.448 6.82852Z" fill="#37623A"/>
<path d="M23.8282 4.78641C23.8282 5.57237 23.9891 6.31638 24.2822 6.99416C24.1985 8.1179 23.6585 9.12022 22.8453 9.81345C22.6756 9.95917 22.4927 10.0916 22.3009 10.2064H22.2767C22.2767 10.2064 22.2723 10.2064 22.2723 10.2109C21.6508 10.5862 20.9544 10.8025 20.1742 10.8025H20.0772C19.848 10.7981 19.6277 10.7738 19.4095 10.7297C17.5009 10.3676 16.0508 8.68529 16.0508 6.67403C16.0508 6.62767 16.0508 6.58572 16.0552 6.53936C17.0359 5.97197 17.6949 4.91004 17.6949 3.69578C17.6949 3.59422 17.6927 3.48825 17.6794 3.3867C18.3715 2.85684 19.2398 2.54333 20.1742 2.54333C21.761 2.54333 23.1384 3.4463 23.8282 4.76654V4.78641Z" fill="#37623A"/>
<path d="M3.81048 7.27011C3.81048 8.43801 4.19395 9.51539 4.83969 10.3852C4.83087 10.4029 4.81985 10.4184 4.80663 10.436C4.58845 10.8069 4.2777 11.1138 3.91406 11.3302C3.52618 11.5686 3.06998 11.7011 2.58513 11.7011C1.16144 11.7011 0 10.5398 0 9.10695C0 7.67412 1.16144 6.51285 2.58513 6.51285C3.03693 6.51285 3.46227 6.62765 3.83252 6.83739C3.81489 6.98089 3.81048 7.1266 3.81048 7.27011Z" fill="#37623A"/>
<path d="M75.0943 13.5949V13.9649L71.7675 12.4501L75.0943 10.9148V11.3605H79.8634V8.91554H74.3005V6.81607H80.0487V4.22803H71.1064V16.1809H80.2276V13.5928H75.0922L75.0943 13.5949Z" fill="#27272A"/>
<path d="M94.1539 4.22998L88.7341 10.3444L83.2976 4.22998H81.6279V16.1828H84.6788V9.83127L88.2225 13.8973H89.2542L92.7979 9.83127V16.1828H95.8488V4.22998H94.1539Z" fill="#27272A"/>
<path d="M104.751 4.15851H103.452L97.2068 16.1829H100.527L101.471 14.2572H106.749L107.68 16.1829H111.011L104.753 4.15851H104.751ZM102.536 12.0596L104.096 8.82966L105.677 12.0596H102.536Z" fill="#27272A"/>
<path d="M78.874 16.1611L78.8296 16.1823V16.1421L78.874 16.1611Z" fill="#27272A"/>
<path d="M69.6724 13.5948V16.1808H60.549V4.22998H69.4934V6.81598H63.7431V8.91544H66.0214V8.61698L66.6783 8.91544L69.306 10.1113V10.1522L66.6762 11.3624L66.0214 11.665V11.3624H63.7431V13.5948H69.6724Z" fill="#27272A"/>
<path d="M59.1678 13.3822C59.1678 14.7928 58.6267 15.9069 57.5654 16.6898C56.5127 17.4626 55.1335 17.8571 53.4596 17.8571C51.7857 17.8571 50.3686 17.4626 49.1832 16.6878C48.5831 16.2953 48.1178 15.8067 47.7893 15.2241C47.4588 14.6394 47.265 13.9607 47.2061 13.1962L47.1977 13.0613H50.1812L50.196 13.1716C50.297 13.9853 50.6571 14.5515 51.2993 14.9031C51.9541 15.2588 52.6805 15.4428 53.4575 15.4428C54.2344 15.4428 54.864 15.2793 55.4072 14.9604C55.94 14.6476 56.1947 14.1917 56.1947 13.5682C56.1947 13.2371 56.1168 12.9406 55.961 12.6851C55.8052 12.4316 55.5399 12.2006 55.1756 12.0023C54.7966 11.7959 54.445 11.6364 54.1292 11.5199C53.8133 11.4074 53.3459 11.2562 52.7374 11.0783C51.0193 10.5529 49.7138 9.95806 48.8547 9.30594C47.9767 8.63746 47.5282 7.67461 47.5282 6.43374C47.5282 5.07839 48.0525 4.01128 49.0927 3.26308C50.1181 2.52101 51.4783 2.14282 53.1332 2.14282C54.6808 2.14282 56.0158 2.5067 57.0959 3.22424C58.1887 3.952 58.8056 5.08248 58.9256 6.58502L58.9383 6.71994H56.0094L55.9947 6.61364C55.881 5.90019 55.5546 5.36663 55.0219 5.02933C54.4766 4.68589 53.8428 4.51213 53.1375 4.51213C52.4321 4.51213 51.7983 4.66749 51.2656 4.97413C50.7476 5.27055 50.495 5.71211 50.495 6.32131C50.495 6.57888 50.556 6.81806 50.6782 7.02453C50.8066 7.24327 50.9477 7.42316 51.0993 7.56218C51.2467 7.70119 51.4993 7.8402 51.8552 7.98329C52.2173 8.12844 52.5037 8.23678 52.7079 8.30629C52.9122 8.37375 53.2533 8.48005 53.7523 8.62519C54.5124 8.86437 55.0788 9.0504 55.4367 9.17715C55.7989 9.30594 56.2684 9.50832 56.8369 9.7843C57.416 10.0644 57.8455 10.3506 58.1108 10.6327C58.3761 10.9148 58.6203 11.295 58.8351 11.7652C59.0499 12.2395 59.1615 12.7812 59.1615 13.3761L59.1678 13.3822Z" fill="#27272A"/>
<path d="M123 13.3822C123 14.7928 122.463 15.9069 121.398 16.6898C120.345 17.4626 118.966 17.8571 117.296 17.8571C115.626 17.8571 114.205 17.4626 113.02 16.6878C111.819 15.9048 111.156 14.7294 111.043 13.1962L111.032 13.0613H114.018L114.03 13.1716C114.131 13.9853 114.494 14.5515 115.136 14.9031C115.786 15.2588 116.513 15.4428 117.294 15.4428C118.075 15.4428 118.698 15.2793 119.244 14.9604C119.774 14.6476 120.031 14.1917 120.031 13.5682C120.031 13.2371 119.951 12.9406 119.795 12.6851C119.64 12.4316 119.376 12.2006 119.01 12.0023C118.633 11.7959 118.279 11.6364 117.966 11.5199C117.648 11.4074 117.18 11.2562 116.572 11.0783C114.856 10.5529 113.55 9.95806 112.689 9.30594C111.811 8.63746 111.363 7.67461 111.363 6.43374C111.363 5.07839 111.889 4.01128 112.927 3.26308C113.952 2.52101 115.313 2.14282 116.968 2.14282C118.519 2.14282 119.852 2.5067 120.932 3.22424C122.023 3.952 122.642 5.08248 122.762 6.58502L122.773 6.71994H119.846L119.827 6.61364C119.713 5.88996 119.395 5.37072 118.854 5.02933C118.311 4.68589 117.677 4.51213 116.972 4.51213C116.266 4.51213 115.633 4.66749 115.1 4.97413C114.58 5.27055 114.329 5.71211 114.329 6.32131C114.329 6.57888 114.39 6.81806 114.513 7.02453C114.639 7.24327 114.782 7.42316 114.932 7.56218C115.081 7.70119 115.336 7.8402 115.687 7.98329C116.052 8.12844 116.338 8.23678 116.542 8.30629C116.744 8.37375 117.094 8.48005 117.585 8.62519C118.345 8.86437 118.911 9.0504 119.269 9.17715C119.631 9.30594 120.105 9.50832 120.673 9.7843C121.252 10.0644 121.682 10.3506 121.947 10.6327C122.213 10.9148 122.457 11.295 122.669 11.7652C122.886 12.2395 122.996 12.7812 122.996 13.3761L123 13.3822Z" fill="#27272A"/>
</svg>
