<svg width="50" height="25" viewBox="0 0 50 25" fill="none" xmlns="http://www.w3.org/2000/svg">
<path d="M6.95268 13.5268C8.02861 14.5768 9.48823 15.2379 11.1008 15.2716C10.4916 16.1582 10.1364 17.2264 10.1364 18.3827C10.1364 18.9531 10.2219 19.4975 10.3827 20.0134C9.95231 20.1923 9.47786 20.2934 8.97749 20.2934C6.94231 20.2934 5.28564 18.6368 5.28564 16.6016C5.28564 15.8601 5.50601 15.1757 5.88194 14.6001L5.88712 14.5949C6.30712 14.3097 6.67268 13.9442 6.95787 13.5242L6.95268 13.5268Z" fill="#37623A"/>
<path d="M20.1903 18.3854C20.1903 20.8976 18.15 22.9379 15.6377 22.9379C13.8722 22.9379 12.3348 21.9268 11.5855 20.4465C11.5103 20.3013 11.4455 20.1561 11.3911 20.0005C11.3263 19.845 11.277 19.6817 11.2355 19.5157C11.1396 19.1554 11.0903 18.7742 11.0903 18.3854C11.0903 17.1487 11.5855 16.0287 12.3866 15.2094L12.4307 15.1654C12.5707 15.1394 12.7107 15.1057 12.8507 15.0694C13.0011 15.0254 13.1514 14.9787 13.3018 14.9242C13.9914 14.6779 14.6266 14.315 15.184 13.8587C15.3344 13.8431 15.4848 13.8328 15.6403 13.8328C18.1526 13.8328 20.1929 15.8731 20.1929 18.3854H20.1903Z" fill="#37623A"/>
<path d="M32.3162 20.1562C31.6318 22.4221 29.524 24.0736 27.0377 24.0736C23.9966 24.0736 21.5259 21.6028 21.5259 18.5617C21.5259 16.7806 22.3711 15.1991 23.6829 14.1906C23.8981 14.2165 24.1185 14.2295 24.3388 14.2295C25.6248 14.2295 26.8148 13.8095 27.7766 13.0991C28.7411 13.2236 29.6329 13.6099 30.377 14.175C30.2525 14.6443 30.1877 15.1395 30.1877 15.645C30.1877 17.4599 31.0174 19.0828 32.3188 20.1588L32.3162 20.1562Z" fill="#37623A"/>
<path d="M40.9158 15.8237C40.8199 18.4345 38.6655 20.5319 36.0288 20.5319C35.0592 20.5319 34.1569 20.2519 33.3973 19.7619C33.2469 19.6659 33.1018 19.5674 32.9618 19.4508C32.8114 19.3263 32.6662 19.1967 32.5262 19.0567C31.6655 18.1752 31.1392 16.9748 31.1392 15.6448C31.1392 15.4037 31.1547 15.1704 31.1884 14.9396C31.2195 14.7452 31.2584 14.5482 31.3077 14.3641C31.3518 14.193 31.4088 14.0245 31.4736 13.8637C31.7147 13.2441 32.0777 12.6893 32.534 12.2174C33.3506 12.583 34.2555 12.7878 35.2095 12.7878C36.4851 12.7878 37.6751 12.4222 38.6862 11.7922C38.8469 13.4282 39.6818 14.8645 40.9132 15.8237H40.9158Z" fill="#37623A"/>
<path d="M49.396 11.2115C49.396 13.9078 47.2052 16.1037 44.5089 16.1037C43.5367 16.1037 42.6267 15.8185 41.8671 15.3233C41.6856 15.2093 41.5171 15.0848 41.3511 14.9448C41.1308 14.7582 40.926 14.5482 40.7419 14.3278L40.7367 14.3226C40.3063 13.8041 39.9848 13.1974 39.8008 12.5337L39.7956 12.5285C39.7152 12.2511 39.666 11.9634 39.6348 11.6678C39.6193 11.5174 39.6167 11.3671 39.6167 11.2115V11.0922C39.6167 11.0922 39.64 11.0715 39.6504 11.0611C40.7419 10.0708 41.4911 8.71483 41.7219 7.19557C42.5126 6.64335 43.4771 6.32446 44.5089 6.32446C47.2052 6.32446 49.396 8.5152 49.396 11.2115Z" fill="#37623A"/>
<path d="M20.4653 4.92705C20.4653 5.16816 20.4342 5.40149 20.3746 5.62705C20.2683 6.07298 20.0557 6.47223 19.7653 6.80668C19.5812 7.02705 19.3609 7.21631 19.1146 7.37186C18.9486 7.47816 18.7749 7.56631 18.5831 7.63112C18.2668 7.75557 17.9272 7.82038 17.5668 7.82038C17.4605 7.82038 17.3568 7.8152 17.2557 7.80483C17.0794 7.78409 16.9109 7.75038 16.7449 7.69853C16.5401 7.6389 16.3509 7.55853 16.1694 7.45742C15.3527 7.01149 14.7798 6.18186 14.6786 5.21742C14.6683 5.12149 14.6631 5.02297 14.6631 4.92186C14.6631 4.81297 14.6683 4.70149 14.6838 4.59779C14.7046 4.42149 14.7383 4.25297 14.7901 4.09223C15.1453 2.89705 16.2549 2.02075 17.5668 2.02075C18.8786 2.02075 20.0375 2.93594 20.3642 4.18297C20.4186 4.37223 20.4498 4.56927 20.4549 4.77409C20.4653 4.82334 20.4653 4.8752 20.4653 4.92446V4.92705Z" fill="#37623A"/>
<path d="M40.8406 6.2079C40.8406 6.36864 40.8354 6.5242 40.8224 6.67975C40.8017 6.92864 40.7602 7.18012 40.7109 7.41864C40.7109 7.42383 40.7057 7.42382 40.7057 7.42382C40.4802 8.46086 39.9669 9.38642 39.2565 10.1175C39.1217 10.2575 38.9791 10.3923 38.8313 10.5116C38.7846 10.5505 38.7406 10.5868 38.6913 10.6205C38.6006 10.6957 38.5098 10.7657 38.4087 10.8305C38.2558 10.942 38.0898 11.0431 37.9239 11.1364C37.1202 11.5823 36.1946 11.8312 35.212 11.8312C34.5769 11.8312 33.9624 11.7275 33.392 11.5279C33.2132 11.4683 33.0369 11.3983 32.8632 11.3179H32.858C32.6972 11.2427 32.5417 11.1572 32.3913 11.0664C31.4165 10.5012 30.6258 9.64568 30.1358 8.6216C29.7858 7.89049 29.5913 7.06864 29.5913 6.2079C29.5913 6.13012 29.5913 6.04457 29.5913 5.9642C29.7235 2.97753 32.1943 0.587158 35.2095 0.587158C38.2246 0.587158 40.838 3.10716 40.838 6.2079H40.8406Z" fill="#37623A"/>
<path d="M16.4237 8.60611C16.4393 8.77463 16.447 8.95092 16.447 9.12463C16.447 10.6361 15.7989 12.0024 14.7619 12.9539C14.2226 13.4543 13.577 13.838 12.8615 14.0687C12.7059 14.1231 12.5452 14.1698 12.3819 14.2035C12.2496 14.2346 12.1148 14.258 11.98 14.2787C11.9359 14.2839 11.8919 14.2891 11.84 14.2943C11.6456 14.3176 11.4459 14.328 11.2463 14.328C9.96556 14.328 8.78853 13.8587 7.87852 13.0835C7.73852 12.9668 7.60889 12.8424 7.48185 12.7128C7.45334 12.6868 7.42741 12.6583 7.40926 12.6324C7.31852 12.5365 7.23297 12.438 7.1526 12.3317C7.11889 12.2876 7.0826 12.2435 7.04889 12.1968C6.91408 12.0128 6.78704 11.8131 6.67815 11.6083C6.31778 10.9524 6.09223 10.2057 6.04815 9.415C6.04815 9.32166 6.04297 9.22574 6.04297 9.12463C6.04297 8.98463 6.04815 8.84981 6.05852 8.715C6.07149 8.52574 6.09741 8.34166 6.13112 8.155C6.58741 5.74389 8.70815 3.9187 11.2463 3.9187C12.1459 3.9187 12.9911 4.14685 13.7326 4.55389C13.717 4.67833 13.7119 4.80278 13.7119 4.92722C13.7119 6.65389 14.8526 8.12129 16.4237 8.60611Z" fill="#37623A"/>
<path d="M28.6346 6.2078C28.6346 7.13077 28.8239 8.00447 29.1687 8.8004C29.0702 10.12 28.435 11.2971 27.4783 12.1111C27.2787 12.2822 27.0635 12.4378 26.8379 12.5726H26.8094C26.8094 12.5726 26.8042 12.5726 26.8042 12.5778C26.0731 13.0185 25.2539 13.2726 24.3361 13.2726H24.222C23.9524 13.2674 23.6931 13.2389 23.4365 13.1871C21.1913 12.7619 19.4854 10.7863 19.4854 8.42447C19.4854 8.37003 19.4854 8.32077 19.4905 8.26632C20.6442 7.60003 21.4194 6.35299 21.4194 4.92706C21.4194 4.8078 21.4168 4.68336 21.4013 4.5641C22.2154 3.94188 23.2368 3.57373 24.3361 3.57373C26.2028 3.57373 27.8231 4.6341 28.6346 6.18447V6.2078Z" fill="#37623A"/>
<path d="M5.08611 9.12461C5.08611 10.4961 5.53722 11.7613 6.29685 12.7828C6.28648 12.8035 6.27352 12.8216 6.25796 12.8424C6.00129 13.2779 5.63574 13.6383 5.20796 13.8924C4.75166 14.1724 4.215 14.3279 3.64463 14.3279C1.96981 14.3279 0.603516 12.9642 0.603516 11.2816C0.603516 9.59906 1.96981 8.23535 3.64463 8.23535C4.17611 8.23535 4.67648 8.37017 5.11203 8.61646C5.09129 8.78498 5.08611 8.95609 5.08611 9.12461Z" fill="#37623A"/>
</svg>
